<?xml version="1.0" encoding="UTF-8"?>
<svg id="Layer_1" data-name="Layer 1" xmlns="http://www.w3.org/2000/svg" viewBox="0 0 544.22 544.22">
  <path d="m272.11,0C2.1,0,0,121.83,0,272.11s2.1,272.11,272.11,272.11,272.11-121.83,272.11-272.11S542.12,0,272.11,0Zm121.95,288.66c-31.18,25.93-64.52,48.76-99.47,69.29-25.78,15.15-52.4,28.63-80.01,40.11-10.83,4.51-22.32.11-26.9-10.15-1.39-3.1-1.65-6.42-1.94-9.71-3.27-37.24-4.21-74.58-4.25-109.83.27-27.8.88-53.47,2.49-79.1.55-8.84,1.29-17.67,2.19-26.48,1.44-14.17,14.83-22.1,28.09-16.72,12.76,5.18,25.28,10.92,37.6,17.09,50.86,25.46,98.3,56.19,142.17,92.4,11.56,9.54,11.62,23.45.03,33.09Z"/>
</svg>